<?xml version="1.0" encoding="UTF-8"?>
<svg id="Layer_2" data-name="Layer 2" xmlns="http://www.w3.org/2000/svg" viewBox="0 0 282.67 234.54">
  <defs>
    <style>
      .cls-1 {
        stroke-width: 8px;
      }

      .cls-1, .cls-2, .cls-3 {
        fill: none;
        stroke: #000;
      }

      .cls-1, .cls-3 {
        stroke-miterlimit: 10;
      }

      .cls-2 {
        stroke-linecap: round;
        stroke-linejoin: round;
      }

      .cls-2, .cls-3 {
        stroke-width: 12px;
      }

      .cls-4 {
        fill: #fff;
        stroke-width: 0px;
      }
    </style>
  </defs>
  <g id="Layer_1-2" data-name="Layer 1">
    <g>
      <polyline class="cls-3" points="3.5 227.45 88.5 166.45 88.5 59"/>
      <circle class="cls-3" cx="88" cy="32.5" r="26.5"/>
      <line class="cls-3" x1="88.07" y1="96.05" x2="157.65" y2="142.86"/>
      <path class="cls-4" d="M262.96,223.02l-103.57-69.67c-7.49-5.04-11.24-12.57-8.38-16.83,2.86-4.26,11.25-3.62,18.74,1.42l103.57,69.67c7.49,5.04,11.24,12.57,8.38,16.83s-11.25,3.62-18.74-1.42Z"/>
      <circle class="cls-3" cx="156.91" cy="141.57" r="8.5"/>
      <line class="cls-2" x1="151.58" y1="136.97" x2="271.48" y2="217.62"/>
      <line class="cls-3" x1="174.89" y1="229.66" x2="89.89" y2="168.66"/>
      <line class="cls-3" x1="8.89" y1="98.1" x2="92.75" y2="98.1"/>
      <g>
        <path class="cls-1" d="M203.08,153.3c1.93-2.87,5.03-8.3,6.2-15.83,1.07-6.86.07-12.49-.76-15.75"/>
        <path class="cls-1" d="M225.73,168.41c1.93-2.87,5.03-8.3,6.2-15.83,1.07-6.86.07-12.49-.76-15.75"/>
        <path class="cls-1" d="M245.67,179.29c1.93-2.87,5.03-8.3,6.2-15.83,1.07-6.86.07-12.49-.76-15.75"/>
      </g>
    </g>
  </g>
</svg>