<?xml version="1.0" encoding="UTF-8"?>
<svg id="Layer_2" data-name="Layer 2" xmlns="http://www.w3.org/2000/svg" viewBox="0 0 318.15 234.54">
  <defs>
    <style>
      .cls-1 {
        stroke-width: 8px;
      }

      .cls-1, .cls-2, .cls-3 {
        fill: none;
        stroke: #000;
      }

      .cls-1, .cls-3 {
        stroke-miterlimit: 10;
      }

      .cls-2 {
        stroke-linecap: round;
        stroke-linejoin: round;
      }

      .cls-2, .cls-3 {
        stroke-width: 12px;
      }

      .cls-4 {
        fill: #fff;
        stroke-width: 0px;
      }
    </style>
  </defs>
  <g id="Layer_1-2" data-name="Layer 1">
    <g>
      <polyline class="cls-3" points="3.5 227.45 88.5 166.45 88.5 59"/>
      <circle class="cls-3" cx="88" cy="32.5" r="26.5"/>
      <line class="cls-3" x1="87.44" y1="97.24" x2="170.63" y2="107.79"/>
      <path class="cls-4" d="M300.73,132.09l-123.83-15.71c-8.96-1.14-15.69-6.18-15.05-11.27.65-5.09,8.43-8.29,17.38-7.15l123.83,15.71c8.96,1.14,15.69,6.18,15.05,11.27s-8.43,8.29-17.38,7.15Z"/>
      <circle class="cls-3" cx="162.56" cy="105.26" r="8.5"/>
      <line class="cls-2" x1="162.56" y1="105.26" x2="305.91" y2="123.44"/>
      <line class="cls-3" x1="174.89" y1="229.66" x2="89.89" y2="168.66"/>
      <line class="cls-3" x1="8.89" y1="98.1" x2="92.75" y2="98.1"/>
      <path class="cls-1" d="M200.87,125.75c-.38,3.43-1.51,9.59-5.47,16.1-3.61,5.94-8,9.6-10.74,11.55"/>
      <path class="cls-1" d="M227.92,128.8c-.38,3.43-1.51,9.59-5.47,16.1-3.61,5.94-8,9.6-10.74,11.55"/>
      <path class="cls-1" d="M250.18,133.34c-.38,3.43-1.51,9.59-5.47,16.1-3.61,5.94-8,9.6-10.74,11.55"/>
    </g>
  </g>
</svg>