<?xml version="1.0" encoding="UTF-8"?>
<svg id="Layer_2" data-name="Layer 2" xmlns="http://www.w3.org/2000/svg" viewBox="0 0 144.09 199.86">
  <defs>
    <style>
      .cls-1 {
        fill: none;
        stroke: #000;
        stroke-miterlimit: 10;
        stroke-width: 12px;
      }
    </style>
  </defs>
  <g id="Layer_1-2" data-name="Layer 1">
    <g>
      <line class="cls-1" x1="71.27" y1="98.45" x2="131.89" y2="53.98"/>
      <path class="cls-1" d="M70.82,164.38c0-35.82,0-71.64,0-107.45"/>
      <path class="cls-1" d="M97.47,32.5c0,14.64-11.86,26.5-26.5,26.5-14.64,0-26.5-11.86-26.5-26.5,0-14.64,11.86-26.5,26.5-26.5,14.64,0,26.5,11.86,26.5,26.5Z"/>
      <line class="cls-1" x1="7.24" y1="54.11" x2="70.5" y2="94.73"/>
      <circle class="cls-1" cx="129.59" cy="56.31" r="8.5"/>
      <path class="cls-1" d="M132.82,181.28c-3.33-17-6.67-34-10-51-18.27,11.12-36.55,22.25-54.82,33.37"/>
      <path class="cls-1" d="M5.92,198.85c3-17.67,6-35.33,9-53,18.94,5.79,37.88,11.58,56.82,17.37"/>
    </g>
  </g>
</svg>