<?xml version="1.0" encoding="UTF-8"?>
<svg id="Layer_2" data-name="Layer 2" xmlns="http://www.w3.org/2000/svg" viewBox="0 0 177.18 262.48">
  <defs>
    <style>
      .cls-1 {
        stroke-linecap: round;
        stroke-linejoin: round;
      }

      .cls-1, .cls-2 {
        fill: none;
        stroke: #000;
        stroke-width: 12px;
      }

      .cls-2 {
        stroke-miterlimit: 10;
      }

      .cls-3 {
        fill: #fff;
        stroke-width: 0px;
      }
    </style>
  </defs>
  <g id="Layer_1-2" data-name="Layer 1">
    <g>
      <polyline class="cls-2" points="173.68 257.23 88.68 196.23 88.68 88.78"/>
      <circle class="cls-2" cx="88.83" cy="64.35" r="26.5"/>
      <line class="cls-2" x1="90.48" y1="127.22" x2="117.11" y2="158.33"/>
      <path class="cls-3" d="M163.03,133.36V15.44c0-8.53-4.16-15.44-9.29-15.44-5.13,0-9.29,6.91-9.29,15.44v117.92c0,8.53,4.16,15.44,9.29,15.44,5.13,0,9.29-6.91,9.29-15.44Z"/>
      <g>
        <circle class="cls-2" cx="153.18" cy="156.28" r="8.5"/>
        <line class="cls-1" x1="153.18" y1="156.28" x2="153.18" y2="11.78"/>
      </g>
      <line class="cls-2" x1="13.14" y1="129.27" x2="88.32" y2="129.27"/>
      <line class="cls-2" x1="153.21" y1="156.27" x2="112.25" y2="156.27"/>
      <line class="cls-2" x1="3.5" y1="257.6" x2="88.5" y2="196.6"/>
    </g>
  </g>
</svg>