<?xml version="1.0" encoding="UTF-8"?>
<svg id="Layer_2" data-name="Layer 2" xmlns="http://www.w3.org/2000/svg" viewBox="0 0 178.18 234.77">
  <defs>
    <style>
      .cls-1 {
        fill: none;
        stroke: #000;
        stroke-miterlimit: 10;
        stroke-width: 12px;
      }
    </style>
  </defs>
  <g id="Layer_1-2" data-name="Layer 1">
    <g>
      <polyline class="cls-1" points="3.5 227.45 88.5 166.45 88.5 59"/>
      <path class="cls-1" d="M114.5,32.5c0,14.64-11.86,26.5-26.5,26.5-14.64,0-26.5-11.86-26.5-26.5,0-14.64,11.86-26.5,26.5-26.5,14.64,0,26.5,11.86,26.5,26.5Z"/>
      <path class="cls-1" d="M87,97.2c17.81,1.67,35.62,3.34,53.43,5.01,9-11.33,18-22.67,27-34"/>
      <circle class="cls-1" cx="163.68" cy="70.68" r="8.5"/>
      <path class="cls-1" d="M166.43,231.22c-11-15-22-30-33-45-14.51-5.85-29.03-11.7-43.54-17.55"/>
      <line class="cls-1" x1="8.89" y1="98.1" x2="92.75" y2="98.1"/>
    </g>
  </g>
</svg>