<?xml version="1.0" encoding="UTF-8"?>
<svg id="Layer_2" data-name="Layer 2" xmlns="http://www.w3.org/2000/svg" viewBox="0 0 202.79 245.99">
  <defs>
    <style>
      .cls-1 {
        stroke-width: 8px;
      }

      .cls-1, .cls-2, .cls-3 {
        fill: none;
        stroke: #000;
      }

      .cls-1, .cls-3 {
        stroke-miterlimit: 10;
      }

      .cls-2 {
        stroke-linecap: round;
        stroke-linejoin: round;
      }

      .cls-2, .cls-3 {
        stroke-width: 12px;
      }

      .cls-4 {
        fill: #fff;
        stroke-width: 0px;
      }
    </style>
  </defs>
  <g id="Layer_1-2" data-name="Layer 1">
    <g>
      <polyline class="cls-3" points="160.54 241.11 75.54 180.11 75.54 72.66"/>
      <polyline class="cls-3" points="14.54 241.11 14.54 183.29 75.54 183.29"/>
      <circle class="cls-3" cx="75.69" cy="48.23" r="26.5"/>
      <path class="cls-3" d="M75.34,108.35c7.87,11.56,15.74,23.13,23.61,34.69"/>
      <path class="cls-4" d="M135,116.3L183.78,10.5c3.53-7.65,10.16-12.11,14.82-9.97,4.66,2.15,5.57,10.09,2.04,17.74l-48.78,105.8c-3.53,7.65-10.16,12.11-14.82,9.97-4.66-2.15-5.57-10.09-2.04-17.74Z"/>
      <g>
        <circle class="cls-3" cx="134.43" cy="141.06" r="8.5"/>
        <line class="cls-2" x1="134.43" y1="141.06" x2="194.93" y2="9.84"/>
      </g>
      <line class="cls-3" x1="0" y1="113.15" x2="75.17" y2="113.15"/>
      <line class="cls-3" x1="135.06" y1="140.41" x2="94.11" y2="140.41"/>
      <g>
        <path class="cls-1" d="M156.25,53.01c-3.19-1.33-8.77-4.15-13.91-9.79-4.68-5.13-6.95-10.38-8.05-13.56"/>
        <path class="cls-1" d="M145.69,78.11c-3.19-1.33-8.77-4.15-13.91-9.79-4.68-5.13-6.95-10.38-8.05-13.56"/>
        <path class="cls-1" d="M135.06,98.18c-3.19-1.33-8.77-4.15-13.91-9.79-4.68-5.13-6.95-10.38-8.05-13.56"/>
      </g>
    </g>
  </g>
</svg>