<?xml version="1.0" encoding="UTF-8"?>
<svg id="Layer_2" data-name="Layer 2" xmlns="http://www.w3.org/2000/svg" viewBox="0 0 204.79 230.25">
  <defs>
    <style>
      .cls-1 {
        stroke-width: 8px;
      }

      .cls-1, .cls-2, .cls-3 {
        fill: none;
        stroke: #000;
      }

      .cls-1, .cls-3 {
        stroke-miterlimit: 10;
      }

      .cls-2 {
        stroke-linecap: round;
        stroke-linejoin: round;
      }

      .cls-2, .cls-3 {
        stroke-width: 12px;
      }

      .cls-4 {
        fill: #fff;
        stroke-width: 0px;
      }
    </style>
  </defs>
  <g id="Layer_1-2" data-name="Layer 1">
    <g>
      <polyline class="cls-3" points="160.54 225.38 75.54 164.38 75.54 56.92"/>
      <polyline class="cls-3" points="14.54 225.38 14.54 167.55 75.54 167.55"/>
      <circle class="cls-3" cx="75.69" cy="32.5" r="26.5"/>
      <path class="cls-3" d="M77.34,103.48c7.87-11.56,15.74-23.13,23.61-34.69"/>
      <path class="cls-4" d="M137,95.53l48.78,105.8c3.53,7.65,10.16,12.11,14.82,9.97,4.66-2.15,5.57-10.09,2.04-17.74l-48.78-105.8c-3.53-7.65-10.16-12.11-14.82-9.97-4.66,2.15-5.57,10.09-2.04,17.74Z"/>
      <g>
        <circle class="cls-3" cx="136.43" cy="70.77" r="8.5"/>
        <line class="cls-2" x1="136.43" y1="70.77" x2="196.93" y2="201.99"/>
      </g>
      <line class="cls-3" x1="0" y1="97.42" x2="75.17" y2="97.42"/>
      <line class="cls-3" x1="137.06" y1="71.42" x2="96.11" y2="71.42"/>
      <g>
        <path class="cls-1" d="M158.25,158.82c-3.19,1.33-8.77,4.15-13.91,9.79-4.68,5.13-6.95,10.38-8.05,13.56"/>
        <path class="cls-1" d="M147.69,133.73c-3.19,1.33-8.77,4.15-13.91,9.79-4.68,5.13-6.95,10.38-8.05,13.56"/>
        <path class="cls-1" d="M137.06,113.65c-3.19,1.33-8.77,4.15-13.91,9.79-4.68,5.13-6.95,10.38-8.05,13.56"/>
      </g>
    </g>
  </g>
</svg>